<svg xmlns="http://www.w3.org/2000/svg" viewBox="0 0 64 64" role="img" aria-label="OpenATC AI control tower"><path d="M22.9893 13.6907A11 11 0 0 1 41.0107 13.6907" fill="none" stroke="#4fcaf0" stroke-width="2.5"/><path d="M17.2553 9.6756A18 18 0 0 1 46.7447 9.6756" fill="none" stroke="#4fcaf0" stroke-width="2.5"/><path d="M32 16V23" fill="none" stroke="#4fcaf0" stroke-width="2.5"/><path d="M14 23H50L48 27H16ZM16 27H20L24 39H20ZM44 27H48L44 39H40ZM30 27H34V39H30ZM20 36H44V40H20ZM28 40H36L39 56H25Z" fill="#4fcaf0"/><rect x="20" y="56" width="24" height="4" rx="1" fill="#4fcaf0"/></svg>
